<svg width="577" height="178" viewBox="0 0 577 178" fill="none" xmlns="http://www.w3.org/2000/svg">
<path d="M31.1279 36.2144C32.4837 36.2144 33.1755 36.9061 33.2031 38.2896V52.8989C33.2031 57.0216 35.2507 59.083 39.3457 59.083C43.5514 59.083 45.6543 57.0078 45.6543 52.8574V38.165C45.6543 28.5085 40.8122 23.6802 31.1279 23.6802H26.9775C25.5941 23.6525 24.9023 22.9608 24.9023 21.605V7.12012C24.9023 5.73665 24.2106 5.04492 22.8271 5.04492C21.4437 5.04492 20.752 5.73665 20.752 7.12012V21.605C20.8903 25.5063 22.9655 27.5815 26.9775 27.8306H31.1279C38.0729 27.8306 41.5316 31.2892 41.5039 38.2065V52.8574C41.5316 54.1855 40.8398 54.8773 39.4287 54.9326C38.0176 54.9326 37.3258 54.2409 37.3535 52.8574V38.2896C37.1045 34.2775 35.0293 32.2023 31.1279 32.064H14.4849C10.3621 32.064 8.30078 34.1392 8.30078 38.2896V52.7744C8.32845 54.1579 7.63672 54.8496 6.22559 54.8496C4.81445 54.7943 4.12272 54.1025 4.15039 52.7744V6.9541C4.17806 5.73665 4.86979 5.10026 6.22559 5.04492C7.63672 5.04492 8.32845 5.73665 8.30078 7.12012V25.7554C8.30078 27.1388 8.99251 27.8306 10.376 27.8306C11.7594 27.8306 12.4512 27.1388 12.4512 25.7554V7.07861C12.4512 2.95589 10.3898 0.894531 6.26709 0.894531C2.08903 0.894531 0 2.96973 0 7.12012V52.7744C0 56.8971 2.08903 58.9723 6.26709 59C10.3898 59 12.4512 56.9386 12.4512 52.8159V38.2896C12.4512 36.8784 13.1429 36.1867 14.5264 36.2144H31.1279ZM105.835 0.894531C107.218 0.894531 107.91 1.58626 107.91 2.96973C107.91 4.35319 107.218 5.04492 105.835 5.04492H76.7822C69.8649 5.01725 66.4062 8.47591 66.4062 15.4209V44.4736C66.4062 51.4186 69.8649 54.8773 76.7822 54.8496H101.685C103.068 54.8773 103.76 54.1855 103.76 52.7744C103.704 51.3633 103.013 50.6715 101.685 50.6992H76.7407C72.618 50.6992 70.5566 48.624 70.5566 44.4736V15.4209C70.5566 14.0374 71.2484 13.3457 72.6318 13.3457C74.0153 13.3457 74.707 14.0374 74.707 15.4209V44.4736C74.7624 45.8848 75.4403 46.5765 76.7407 46.5488H101.685C105.835 46.5488 107.91 48.6379 107.91 52.8159C107.91 56.9386 105.849 59 101.726 59H76.7407C67.0841 59 62.2559 54.1579 62.2559 44.4736V15.4209C62.2559 5.73665 67.0841 0.894531 76.7407 0.894531H105.835ZM151.489 27.8306C152.817 27.8029 153.509 28.4946 153.564 29.9058C153.564 31.3169 152.873 32.0086 151.489 31.981H138.997C134.874 31.981 132.812 34.0562 132.812 38.2065V44.3906C132.812 48.5964 134.888 50.6992 139.038 50.6992H163.94C165.269 50.6715 165.96 51.3633 166.016 52.7744C166.016 54.1855 165.324 54.8773 163.94 54.8496H130.737C129.326 54.7943 128.634 54.1025 128.662 52.7744V7.12012C128.717 5.70898 129.409 5.01725 130.737 5.04492H168.091C169.474 5.04492 170.166 4.35319 170.166 2.96973C170.166 1.58626 169.474 0.894531 168.091 0.894531H130.737C126.587 0.894531 124.512 2.9974 124.512 7.20312V52.7744C124.512 56.9248 126.615 59 130.82 59H163.982C168.105 59 170.166 56.9248 170.166 52.7744V52.8574C170.166 48.6517 168.091 46.5488 163.94 46.5488H139.038C137.71 46.5765 137.018 45.8848 136.963 44.4736V38.2065C136.963 36.7954 137.655 36.1037 139.038 36.1313H151.531C155.653 36.1313 157.715 34.0562 157.715 29.9058V29.9888C157.715 25.783 155.64 23.6802 151.489 23.6802H139.038C137.71 23.7078 137.018 23.0161 136.963 21.605V15.4209C136.963 14.0374 136.271 13.3457 134.888 13.3457C133.504 13.3457 132.812 14.0374 132.812 15.4209V21.522C132.812 25.7277 134.888 27.8306 139.038 27.8306H151.489ZM217.937 36.1313C219.32 36.1313 220.012 35.4396 220.012 34.0562C220.012 32.6727 219.32 31.981 217.937 31.981H201.252C197.13 31.981 195.068 34.0562 195.068 38.2065V52.7744C195.096 54.1579 194.404 54.8496 192.993 54.8496C191.582 54.7943 190.89 54.1025 190.918 52.7744V7.12012C190.89 5.79199 191.582 5.10026 192.993 5.04492C194.404 5.04492 195.096 5.73665 195.068 7.12012V21.605C195.068 25.7554 197.13 27.8306 201.252 27.8306H217.937C222.06 27.8306 224.121 25.7554 224.121 21.605V7.12012C224.093 5.73665 224.785 5.04492 226.196 5.04492C227.607 5.10026 228.299 5.79199 228.271 7.12012V56.9248C228.271 58.3083 228.963 59 230.347 59C231.73 59 232.422 58.3083 232.422 56.9248V7.12012C232.422 2.96973 230.333 0.894531 226.155 0.894531C222.032 0.894531 219.971 2.95589 219.971 7.07861V21.605C219.971 23.0161 219.279 23.7078 217.896 23.6802H201.294C199.91 23.7078 199.219 23.0161 199.219 21.605V7.07861C199.219 2.95589 197.157 0.894531 193.035 0.894531C188.857 0.894531 186.768 2.96973 186.768 7.12012V52.7744C186.768 56.8971 188.857 58.9723 193.035 59C197.157 59 199.219 56.9386 199.219 52.8159V38.2065C199.219 36.7954 199.91 36.1037 201.294 36.1313H217.937ZM294.678 7.07861C294.678 2.95589 292.616 0.894531 288.494 0.894531C284.316 0.894531 282.227 2.96973 282.227 7.12012V13.5117H282.268V15.9604C282.268 18.8381 280.981 22.2552 278.408 26.2119L265.085 47.1714C261.627 52.2902 258.348 54.8496 255.249 54.8496C253.838 54.8496 253.146 54.1579 253.174 52.7744V7.12012C253.146 5.79199 253.838 5.10026 255.249 5.04492C256.66 5.04492 257.352 5.73665 257.324 7.12012V44.4736C257.324 45.8571 258.016 46.5488 259.399 46.5488C260.783 46.5488 261.475 45.8571 261.475 44.4736V7.07861C261.475 2.95589 259.413 0.894531 255.291 0.894531C251.112 0.894531 249.023 2.96973 249.023 7.12012V52.7744C249.217 56.9248 251.195 59 254.958 59C259.386 59 263.536 56.2331 267.41 50.6992L282.268 28.2456C285.035 24.3719 286.418 20.5674 286.418 16.832V11.4365H286.377V7.12012C286.349 5.79199 287.041 5.10026 288.452 5.04492C289.863 5.04492 290.555 5.73665 290.527 7.12012V52.9404C290.5 54.2132 289.808 54.8496 288.452 54.8496C287.041 54.7943 286.349 54.1025 286.377 52.7744V38.248C286.377 36.8646 285.685 36.1729 284.302 36.1729C282.918 36.1729 282.227 36.8646 282.227 38.248V52.7744C282.227 56.9248 284.329 59 288.535 59C292.63 59 294.678 56.9386 294.678 52.8159V7.07861ZM319.082 58.2529C318.114 59.2214 317.145 59.2214 316.177 58.2529C315.181 57.2568 315.181 56.2746 316.177 55.3062L333.235 38.248C335.338 36.1452 336.32 34.7479 336.182 34.0562C336.182 32.7004 335.49 32.0086 334.106 31.981H325.764C316.108 31.981 311.279 27.1388 311.279 17.4546V15.4209C311.279 5.73665 316.108 0.894531 325.764 0.894531H350.708C354.665 0.894531 356.74 2.96973 356.934 7.12012V52.7744C356.934 56.9248 354.845 59 350.667 59C346.544 59 344.482 56.9386 344.482 52.8159V15.4209C344.482 14.0374 345.174 13.3457 346.558 13.3457C347.941 13.3457 348.633 14.0374 348.633 15.4209V52.7744C348.605 54.1579 349.297 54.8496 350.708 54.8496C352.119 54.7943 352.811 54.1025 352.783 52.7744V7.12012C352.811 5.73665 352.119 5.04492 350.708 5.04492H325.806C318.888 5.01725 315.43 8.47591 315.43 15.4209V17.4546C315.43 24.3996 318.888 27.8582 325.806 27.8306H334.106C338.257 27.8306 340.332 29.9058 340.332 34.0562C340.332 35.9377 339.862 37.3903 338.921 38.4141L319.082 58.2529ZM18.6768 177C17.2933 177 16.6016 176.308 16.6016 174.925C16.6016 173.541 17.2933 172.85 18.6768 172.85H29.0527C37.3535 172.877 41.5039 169.847 41.5039 163.76C41.5039 157.424 38.4603 154.242 32.373 154.214H22.8271C18.6768 154.214 16.6016 152.125 16.6016 147.947V148.03C16.6016 143.825 18.6768 141.722 22.8271 141.722H32.373C38.4603 141.694 41.5039 138.512 41.5039 132.176C41.5039 126.089 37.3535 123.045 29.0527 123.045H6.22559C4.81445 123.045 4.12272 123.737 4.15039 125.12V170.774C4.12272 172.103 4.81445 172.794 6.22559 172.85C7.63672 172.85 8.32845 172.158 8.30078 170.774V133.421C8.30078 132.037 8.99251 131.346 10.376 131.346C11.7594 131.346 12.4512 132.037 12.4512 133.421V170.816C12.4512 174.939 10.376 177 6.22559 177H6.30859C2.10286 177 0 174.925 0 170.774V125.12C0.193685 120.97 2.26888 118.895 6.22559 118.895H29.0527C40.1204 118.895 45.6543 123.322 45.6543 132.176C45.6543 141.279 41.2272 145.844 32.373 145.872H22.8271C21.4437 145.844 20.752 146.536 20.752 147.947C20.752 149.358 21.4437 150.05 22.8271 150.022H25.3174V150.064H32.373C41.2272 150.092 45.6543 154.657 45.6543 163.76C45.6543 172.614 40.1204 177.028 29.0527 177H18.6768ZM89.2334 145.831C90.5615 145.803 91.2533 146.495 91.3086 147.906C91.3086 149.317 90.6169 150.009 89.2334 149.981H76.7407C72.618 149.981 70.5566 152.056 70.5566 156.207V162.391C70.5566 166.596 72.6318 168.699 76.7822 168.699H101.685C103.013 168.672 103.704 169.363 103.76 170.774C103.76 172.186 103.068 172.877 101.685 172.85H68.4814C67.0703 172.794 66.3786 172.103 66.4062 170.774V125.12C66.4616 123.709 67.1533 123.017 68.4814 123.045H105.835C107.218 123.045 107.91 122.353 107.91 120.97C107.91 119.586 107.218 118.895 105.835 118.895H68.4814C64.3311 118.895 62.2559 120.997 62.2559 125.203V170.774C62.2559 174.925 64.3587 177 68.5645 177H101.726C105.849 177 107.91 174.925 107.91 170.774V170.857C107.91 166.652 105.835 164.549 101.685 164.549H76.7822C75.4541 164.576 74.7624 163.885 74.707 162.474V156.207C74.707 154.795 75.3988 154.104 76.7822 154.131H89.2749C93.3976 154.131 95.459 152.056 95.459 147.906V147.989C95.459 143.783 93.3838 141.68 89.2334 141.68H76.7822C75.4541 141.708 74.7624 141.016 74.707 139.605V133.421C74.707 132.037 74.0153 131.346 72.6318 131.346C71.2484 131.346 70.5566 132.037 70.5566 133.421V139.522C70.5566 143.728 72.6318 145.831 76.7822 145.831H89.2334ZM143.188 149.981C141.805 149.981 141.113 149.289 141.113 147.906C141.113 146.522 141.805 145.831 143.188 145.831H155.64C162.557 145.858 166.016 142.4 166.016 135.455V133.421C166.016 126.476 162.557 123.017 155.64 123.045H130.737C129.326 123.045 128.634 123.737 128.662 125.12V170.774C128.634 172.103 129.326 172.794 130.737 172.85C132.148 172.85 132.84 172.158 132.812 170.774V133.421C132.812 132.037 133.504 131.346 134.888 131.346C136.271 131.346 136.963 132.037 136.963 133.421V170.816C136.963 174.939 134.902 177 130.779 177C126.601 177 124.512 174.925 124.512 170.774V125.12C124.705 120.97 126.781 118.895 130.737 118.895H155.681C165.338 118.895 170.166 123.737 170.166 133.421V135.455C170.166 145.139 165.338 149.981 155.681 149.981H143.188ZM255.166 172.85C256.577 172.794 257.269 172.103 257.241 170.774V120.97C257.241 119.586 257.933 118.895 259.316 118.895C260.7 118.895 261.392 119.586 261.392 120.97V170.774C261.392 174.925 259.303 177 255.125 177H193.035C188.857 177 186.768 174.925 186.768 170.774V125.12C186.768 120.997 188.857 118.922 193.035 118.895C197.157 118.895 199.219 120.956 199.219 125.079V162.474C199.219 163.885 199.91 164.576 201.294 164.549H213.662C215.046 164.576 215.737 163.885 215.737 162.474V125.12C215.737 120.997 217.826 118.922 222.004 118.895C226.127 118.895 228.188 120.956 228.188 125.079V162.474C228.188 163.885 228.88 164.576 230.264 164.549H246.907C248.29 164.549 248.982 165.241 248.982 166.624C248.982 168.007 248.29 168.699 246.907 168.699H230.222C226.099 168.699 224.038 166.624 224.038 162.474V125.12C224.066 123.737 223.374 123.045 221.963 123.045C220.552 123.1 219.86 123.792 219.888 125.12V162.474C219.888 166.624 217.826 168.699 213.704 168.699H201.252C197.13 168.699 195.068 166.624 195.068 162.474V125.12C195.096 123.737 194.404 123.045 192.993 123.045C191.582 123.1 190.89 123.792 190.918 125.12V170.774C190.89 172.103 191.582 172.794 192.993 172.85H255.166ZM323.647 125.079C323.647 120.956 321.586 118.895 317.463 118.895C313.285 118.895 311.196 120.97 311.196 125.12V131.512H311.238V133.96C311.238 136.838 309.951 140.255 307.378 144.212L294.055 165.171C290.597 170.29 287.318 172.85 284.219 172.85C282.808 172.85 282.116 172.158 282.144 170.774V125.12C282.116 123.792 282.808 123.1 284.219 123.045C285.63 123.045 286.322 123.737 286.294 125.12V162.474C286.294 163.857 286.986 164.549 288.369 164.549C289.753 164.549 290.444 163.857 290.444 162.474V125.079C290.444 120.956 288.383 118.895 284.26 118.895C280.082 118.895 277.993 120.97 277.993 125.12V170.774C278.187 174.925 280.165 177 283.928 177C288.355 177 292.506 174.233 296.379 168.699L311.238 146.246C314.005 142.372 315.388 138.567 315.388 134.832V129.437H315.347V125.12C315.319 123.792 316.011 123.1 317.422 123.045C318.833 123.045 319.525 123.737 319.497 125.12V170.94C319.469 172.213 318.778 172.85 317.422 172.85C316.011 172.794 315.319 172.103 315.347 170.774V156.248C315.347 154.865 314.655 154.173 313.271 154.173C311.888 154.173 311.196 154.865 311.196 156.248V170.774C311.196 174.925 313.299 177 317.505 177C321.6 177 323.647 174.939 323.647 170.816V125.079ZM371.418 154.131C372.802 154.131 373.494 153.44 373.494 152.056C373.494 150.673 372.802 149.981 371.418 149.981H354.734C350.611 149.981 348.55 152.056 348.55 156.207V170.774C348.577 172.158 347.886 172.85 346.475 172.85C345.063 172.794 344.372 172.103 344.399 170.774V125.12C344.372 123.792 345.063 123.1 346.475 123.045C347.886 123.045 348.577 123.737 348.55 125.12V139.605C348.55 143.755 350.611 145.831 354.734 145.831H371.418C375.541 145.831 377.603 143.755 377.603 139.605V125.12C377.575 123.737 378.267 123.045 379.678 123.045C381.089 123.1 381.781 123.792 381.753 125.12V174.925C381.753 176.308 382.445 177 383.828 177C385.212 177 385.903 176.308 385.903 174.925V125.12C385.903 120.97 383.814 118.895 379.636 118.895C375.514 118.895 373.452 120.956 373.452 125.079V139.605C373.452 141.016 372.76 141.708 371.377 141.68H354.775C353.392 141.708 352.7 141.016 352.7 139.605V125.079C352.7 120.956 350.639 118.895 346.516 118.895C342.338 118.895 340.249 120.97 340.249 125.12V170.774C340.249 174.897 342.338 176.972 346.516 177C350.639 177 352.7 174.939 352.7 170.816V156.207C352.7 154.795 353.392 154.104 354.775 154.131H371.418ZM448.159 125.079C448.159 120.956 446.098 118.895 441.975 118.895C437.797 118.895 435.708 120.97 435.708 125.12V131.512H435.75V133.96C435.75 136.838 434.463 140.255 431.89 144.212L418.567 165.171C415.108 170.29 411.829 172.85 408.73 172.85C407.319 172.85 406.628 172.158 406.655 170.774V125.12C406.628 123.792 407.319 123.1 408.73 123.045C410.142 123.045 410.833 123.737 410.806 125.12V162.474C410.806 163.857 411.497 164.549 412.881 164.549C414.264 164.549 414.956 163.857 414.956 162.474V125.079C414.956 120.956 412.895 118.895 408.772 118.895C404.594 118.895 402.505 120.97 402.505 125.12V170.774C402.699 174.925 404.677 177 408.44 177C412.867 177 417.017 174.233 420.891 168.699L435.75 146.246C438.516 142.372 439.9 138.567 439.9 134.832V129.437H439.858V125.12C439.831 123.792 440.522 123.1 441.934 123.045C443.345 123.045 444.036 123.737 444.009 125.12V170.94C443.981 172.213 443.289 172.85 441.934 172.85C440.522 172.794 439.831 172.103 439.858 170.774V156.248C439.858 154.865 439.167 154.173 437.783 154.173C436.4 154.173 435.708 154.865 435.708 156.248V170.774C435.708 174.925 437.811 177 442.017 177C446.112 177 448.159 174.939 448.159 170.816V125.079ZM495.93 154.131C497.314 154.131 498.005 153.44 498.005 152.056C498.005 150.673 497.314 149.981 495.93 149.981H479.246C475.123 149.981 473.062 152.056 473.062 156.207V170.774C473.089 172.158 472.397 172.85 470.986 172.85C469.575 172.794 468.883 172.103 468.911 170.774V125.12C468.883 123.792 469.575 123.1 470.986 123.045C472.397 123.045 473.089 123.737 473.062 125.12V139.605C473.062 143.755 475.123 145.831 479.246 145.831H495.93C500.053 145.831 502.114 143.755 502.114 139.605V125.12C502.087 123.737 502.778 123.045 504.189 123.045C505.601 123.1 506.292 123.792 506.265 125.12V174.925C506.265 176.308 506.956 177 508.34 177C509.723 177 510.415 176.308 510.415 174.925V125.12C510.415 120.97 508.326 118.895 504.148 118.895C500.025 118.895 497.964 120.956 497.964 125.079V139.605C497.964 141.016 497.272 141.708 495.889 141.68H479.287C477.904 141.708 477.212 141.016 477.212 139.605V125.079C477.212 120.956 475.151 118.895 471.028 118.895C466.85 118.895 464.761 120.97 464.761 125.12V170.774C464.761 174.897 466.85 176.972 471.028 177C475.151 177 477.212 174.939 477.212 170.816V156.207C477.212 154.795 477.904 154.104 479.287 154.131H495.93ZM535.317 170.774C535.345 172.103 534.653 172.794 533.242 172.85C531.831 172.85 531.139 172.158 531.167 170.774V160.232C531.167 155.971 532.454 152.554 535.027 149.981L554.243 130.723C559.362 125.604 563.305 123.045 566.072 123.045H570.596C572.007 123.045 572.699 123.737 572.671 125.12V170.774C572.699 172.103 572.007 172.794 570.596 172.85C569.185 172.85 568.493 172.158 568.521 170.774V152.056C568.271 148.044 566.196 145.969 562.295 145.831H549.844C548.46 145.831 547.769 146.522 547.769 147.906C547.769 149.289 548.46 149.981 549.844 149.981H562.295C563.651 149.981 564.342 150.673 564.37 152.056V170.816C564.37 174.939 566.418 177 570.513 177C574.718 177 576.821 174.925 576.821 170.774V125.12C576.628 120.97 574.552 118.895 570.596 118.895H566.445C562.295 118.895 557.453 121.661 551.919 127.195L531.167 147.947C528.4 150.714 527.017 154.519 527.017 159.361V170.816C527.017 174.939 529.064 177 533.159 177C537.365 177 539.468 174.925 539.468 170.774V158.323C539.468 156.94 538.776 156.248 537.393 156.248C536.009 156.248 535.317 156.94 535.317 158.323V170.774Z" fill="url(#paint0_diamond_58_34)"/>
<defs>
<radialGradient id="paint0_diamond_58_34" cx="0" cy="0" r="1" gradientUnits="userSpaceOnUse" gradientTransform="translate(331.83 126) rotate(92.5266) scale(360.35 668.796)">
<stop stop-color="#C1138A"/>
<stop offset="0.940625" stop-color="#FB01AC" stop-opacity="0.0593751"/>
<stop offset="1" stop-color="#FF00AE" stop-opacity="0"/>
<stop offset="1" stop-color="#B3008E"/>
</radialGradient>
</defs>
</svg>
