<svg width="54" height="54" viewBox="0 0 54 54" fill="none" xmlns="http://www.w3.org/2000/svg">
<path d="M42.56 6.71997H11.2C9.41776 6.71997 7.7085 7.42797 6.44825 8.68821C5.18801 9.94846 4.48001 11.6577 4.48001 13.44V24.64H49.28V13.44C49.28 11.6577 48.572 9.94846 47.3118 8.68821C46.0515 7.42797 44.3423 6.71997 42.56 6.71997Z" fill="url(#paint0_angular_58_31)"/>
<path d="M4.48001 31.3601C4.48001 33.1424 5.18801 34.8516 6.44825 36.1119C7.7085 37.3721 9.41776 38.0801 11.2 38.0801H24.64V42.5601H15.68C15.0859 42.5601 14.5162 42.7961 14.0961 43.2162C13.676 43.6363 13.44 44.206 13.44 44.8001C13.44 45.3942 13.676 45.964 14.0961 46.384C14.5162 46.8041 15.0859 47.0401 15.68 47.0401H38.08C38.6741 47.0401 39.2439 46.8041 39.6639 46.384C40.084 45.964 40.32 45.3942 40.32 44.8001C40.32 44.206 40.084 43.6363 39.6639 43.2162C39.2439 42.7961 38.6741 42.5601 38.08 42.5601H29.12V38.0801H42.56C44.3423 38.0801 46.0515 37.3721 47.3118 36.1119C48.572 34.8516 49.28 33.1424 49.28 31.3601V29.1201H4.48001V31.3601Z" fill="url(#paint1_angular_58_31)"/>
<defs>
<radialGradient id="paint0_angular_58_31" cx="0" cy="0" r="1" gradientUnits="userSpaceOnUse" gradientTransform="translate(26.88 15.68) rotate(90) scale(8.96 22.4)">
<stop stop-color="#B00187"/>
<stop offset="1" stop-color="#B00187" stop-opacity="0"/>
</radialGradient>
<radialGradient id="paint1_angular_58_31" cx="0" cy="0" r="1" gradientUnits="userSpaceOnUse" gradientTransform="translate(26.88 38.0801) rotate(90) scale(8.96 22.4)">
<stop stop-color="#B00187"/>
<stop offset="1" stop-color="#B00187" stop-opacity="0"/>
</radialGradient>
</defs>
</svg>
